<svg width="14" height="14" viewBox="0 0 14 14" fill="none" xmlns="http://www.w3.org/2000/svg">
<g opacity="0.25" clip-path="url(#clip0_5419_1364)">
<path d="M13.9933 11.0474C14.023 11.2746 13.9537 11.4723 13.7858 11.6402L11.8147 13.5965C11.7257 13.6953 11.6097 13.7793 11.4664 13.8484C11.3231 13.9176 11.1824 13.9621 11.0441 13.9818C11.0342 13.9818 11.0045 13.9844 10.9551 13.9893C10.9057 13.9942 10.8415 13.9967 10.7625 13.9967C10.5747 13.9967 10.2708 13.9646 9.8509 13.9004C9.43098 13.8361 8.91721 13.678 8.30961 13.4261C7.70186 13.1742 7.01271 12.7962 6.24206 12.2923C5.4714 11.7885 4.65129 11.0968 3.7818 10.2174C3.09016 9.53564 2.51709 8.88352 2.06259 8.26108C1.60808 7.63858 1.2425 7.06304 0.965847 6.53443C0.689168 6.00582 0.481676 5.52661 0.343349 5.09681C0.205021 4.667 0.111156 4.29648 0.0617534 3.98525C0.0123507 3.67401 -0.00741041 3.42947 0.00247014 3.25162C0.0123507 3.07377 0.0172909 2.97496 0.0172909 2.9552C0.037052 2.81687 0.0815145 2.67608 0.150678 2.53281C0.219842 2.38954 0.303827 2.27344 0.402632 2.18452L2.3738 0.213351C2.51213 0.0750232 2.67022 0.00585938 2.84807 0.00585938C2.97651 0.00585938 3.09014 0.0429114 3.18894 0.117015C3.28775 0.19112 3.37173 0.282515 3.4409 0.3912L5.02673 3.39982C5.11565 3.55791 5.14035 3.73082 5.10083 3.91855C5.06131 4.10628 4.97732 4.26437 4.84888 4.39282L4.12266 5.11904C4.10289 5.1388 4.0856 5.17091 4.07078 5.21537C4.05596 5.25984 4.04855 5.29689 4.04855 5.32653C4.08807 5.53402 4.177 5.77115 4.31533 6.03793C4.43389 6.27506 4.61668 6.56407 4.8637 6.90495C5.11071 7.24583 5.46147 7.63855 5.91597 8.08318C6.3606 8.53773 6.75582 8.89091 7.10164 9.14291C7.44739 9.39477 7.73649 9.5801 7.96868 9.69867C8.20087 9.81724 8.37872 9.88887 8.50221 9.9135L8.68742 9.95058C8.70718 9.95058 8.73936 9.94314 8.78378 9.92834C8.82824 9.9135 8.86035 9.89623 8.88014 9.87645L9.7249 9.01684C9.90285 8.85878 10.1102 8.77973 10.3474 8.77973C10.5154 8.77973 10.6487 8.80935 10.7475 8.86866H10.7623L13.6227 10.5582C13.8303 10.6868 13.9538 10.8498 13.9933 11.0474Z" fill="#31393C"/>
</g>
<defs>
<clipPath id="clip0_5419_1364">
<rect width="14" height="14" fill="white"/>
</clipPath>
</defs>
</svg>
