<svg width="45" height="45" viewBox="0 0 45 45" fill="none" xmlns="http://www.w3.org/2000/svg">
<g opacity="0.5">
<circle cx="1.73077" cy="1.73077" r="1.73077" fill="#33A1FD"/>
<circle cx="1.73077" cy="12.1155" r="1.73077" fill="#33A1FD"/>
<circle cx="12.1155" cy="12.1155" r="1.73077" fill="#33A1FD"/>
<circle cx="22.5003" cy="12.1155" r="1.73077" fill="#33A1FD"/>
<circle cx="32.8851" cy="12.1155" r="1.73077" fill="#33A1FD"/>
<circle cx="43.2698" cy="12.1155" r="1.73077" fill="#33A1FD"/>
<circle cx="1.73077" cy="22.5003" r="1.73077" fill="#33A1FD"/>
<circle cx="12.1155" cy="22.5003" r="1.73077" fill="#33A1FD"/>
<circle cx="22.5003" cy="22.5003" r="1.73077" fill="#33A1FD"/>
<circle cx="32.8851" cy="22.5003" r="1.73077" fill="#33A1FD"/>
<circle cx="43.2698" cy="22.5003" r="1.73077" fill="#33A1FD"/>
<circle cx="12.1155" cy="32.8851" r="1.73077" fill="#33A1FD"/>
<circle cx="22.5003" cy="32.8851" r="1.73077" fill="#33A1FD"/>
<circle cx="32.8851" cy="32.8851" r="1.73077" fill="#33A1FD"/>
<circle cx="43.2698" cy="32.8851" r="1.73077" fill="#33A1FD"/>
<circle cx="12.1155" cy="43.2689" r="1.73077" fill="#33A1FD"/>
<circle cx="22.5003" cy="43.2689" r="1.73077" fill="#33A1FD"/>
<circle cx="32.8851" cy="43.2689" r="1.73077" fill="#33A1FD"/>
<circle cx="43.2698" cy="43.2689" r="1.73077" fill="#33A1FD"/>
<circle cx="1.73077" cy="32.8851" r="1.73077" fill="#33A1FD"/>
<circle cx="1.73077" cy="43.2689" r="1.73077" fill="#33A1FD"/>
<circle cx="12.1155" cy="1.73077" r="1.73077" fill="#33A1FD"/>
<circle cx="22.5003" cy="1.73077" r="1.73077" fill="#33A1FD"/>
<circle cx="32.8851" cy="1.73077" r="1.73077" fill="#33A1FD"/>
<circle cx="43.2698" cy="1.73077" r="1.73077" fill="#33A1FD"/>
</g>
</svg>
